<?xml version="1.0" encoding="UTF-8" standalone="no"?>
<!DOCTYPE svg PUBLIC "-//W3C//DTD SVG 1.1//EN"
 "http://www.w3.org/Graphics/SVG/1.1/DTD/svg11.dtd">
<!-- Generated by graphviz version 12.0.0 (20240704.0754)
 -->
<!-- Title: G Pages: 1 -->
<svg width="1349pt" height="227pt"
 viewBox="0.00 0.00 1348.50 227.00" xmlns="http://www.w3.org/2000/svg" xmlns:xlink="http://www.w3.org/1999/xlink">
<g id="graph0" class="graph" transform="scale(1 1) rotate(0) translate(4 223)">
<title>G</title>
<polygon fill="white" stroke="none" points="-4,4 -4,-223 1344.5,-223 1344.5,4 -4,4"/>
<g id="clust1" class="cluster">
<title>cluster_module.standard_cluster</title>
<polygon fill="none" stroke="black" points="8,-8 8,-211 1332.5,-211 1332.5,-8 8,-8"/>
<text text-anchor="middle" x="670.25" y="-193.7" font-family="sans-serif" font-size="14.00">module.standard_cluster</text>
</g>
<!-- module.standard_cluster.google_compute_address.address -->
<g id="node1" class="node">
<title>module.standard_cluster.google_compute_address.address</title>
<polygon fill="none" stroke="black" points="489.75,-62 266,-62 266,-26 489.75,-26 489.75,-62"/>
<text text-anchor="middle" x="377.88" y="-38.2" font-family="sans-serif" font-size="14.00">google_compute_address.address</text>
</g>
<!-- module.standard_cluster.google_project_service.compute -->
<g id="node10" class="node">
<title>module.standard_cluster.google_project_service.compute</title>
<polygon fill="none" stroke="black" points="228.5,-62 17.5,-62 17.5,-26 228.5,-26 228.5,-62"/>
<text text-anchor="middle" x="123" y="-38.2" font-family="sans-serif" font-size="14.00">google_project_service.compute</text>
</g>
<!-- module.standard_cluster.google_compute_address.address&#45;&gt;module.standard_cluster.google_project_service.compute -->
<g id="edge1" class="edge">
<title>module.standard_cluster.google_compute_address.address&#45;&gt;module.standard_cluster.google_project_service.compute</title>
<path fill="none" stroke="black" d="M265.59,-44C257.21,-44 248.74,-44 240.33,-44"/>
<polygon fill="black" stroke="black" points="240.42,-40.5 230.42,-44 240.42,-47.5 240.42,-40.5"/>
</g>
<!-- module.standard_cluster.google_compute_firewall.firewall -->
<g id="node2" class="node">
<title>module.standard_cluster.google_compute_firewall.firewall</title>
<polygon fill="none" stroke="black" points="750.25,-180 538.5,-180 538.5,-144 750.25,-144 750.25,-180"/>
<text text-anchor="middle" x="644.38" y="-156.2" font-family="sans-serif" font-size="14.00">google_compute_firewall.firewall</text>
</g>
<!-- module.standard_cluster.google_compute_network.vpc -->
<g id="node3" class="node">
<title>module.standard_cluster.google_compute_network.vpc</title>
<polygon fill="none" stroke="black" points="475.88,-116 279.88,-116 279.88,-80 475.88,-80 475.88,-116"/>
<text text-anchor="middle" x="377.88" y="-92.2" font-family="sans-serif" font-size="14.00">google_compute_network.vpc</text>
</g>
<!-- module.standard_cluster.google_compute_firewall.firewall&#45;&gt;module.standard_cluster.google_compute_network.vpc -->
<g id="edge2" class="edge">
<title>module.standard_cluster.google_compute_firewall.firewall&#45;&gt;module.standard_cluster.google_compute_network.vpc</title>
<path fill="none" stroke="black" d="M562.01,-143.56C549.85,-140.73 537.46,-137.82 525.75,-135 505.05,-130.02 482.76,-124.49 461.95,-119.25"/>
<polygon fill="black" stroke="black" points="462.91,-115.89 452.36,-116.83 461.2,-122.67 462.91,-115.89"/>
</g>
<!-- module.standard_cluster.google_compute_network.vpc&#45;&gt;module.standard_cluster.google_project_service.compute -->
<g id="edge3" class="edge">
<title>module.standard_cluster.google_compute_network.vpc&#45;&gt;module.standard_cluster.google_project_service.compute</title>
<path fill="none" stroke="black" d="M290.56,-79.57C268.3,-74.81 244.2,-69.67 221.42,-64.8"/>
<polygon fill="black" stroke="black" points="222.35,-61.42 211.84,-62.76 220.89,-68.27 222.35,-61.42"/>
</g>
<!-- module.standard_cluster.google_project_service.container -->
<g id="node11" class="node">
<title>module.standard_cluster.google_project_service.container</title>
<polygon fill="none" stroke="black" points="230,-116 16,-116 16,-80 230,-80 230,-116"/>
<text text-anchor="middle" x="123" y="-92.2" font-family="sans-serif" font-size="14.00">google_project_service.container</text>
</g>
<!-- module.standard_cluster.google_compute_network.vpc&#45;&gt;module.standard_cluster.google_project_service.container -->
<g id="edge4" class="edge">
<title>module.standard_cluster.google_compute_network.vpc&#45;&gt;module.standard_cluster.google_project_service.container</title>
<path fill="none" stroke="black" d="M279.47,-98C266.99,-98 254.1,-98 241.35,-98"/>
<polygon fill="black" stroke="black" points="241.69,-94.5 231.69,-98 241.69,-101.5 241.69,-94.5"/>
</g>
<!-- module.standard_cluster.google_compute_router.router -->
<g id="node4" class="node">
<title>module.standard_cluster.google_compute_router.router</title>
<polygon fill="none" stroke="black" points="743.5,-72 545.25,-72 545.25,-36 743.5,-36 743.5,-72"/>
<text text-anchor="middle" x="644.38" y="-48.2" font-family="sans-serif" font-size="14.00">google_compute_router.router</text>
</g>
<!-- module.standard_cluster.google_compute_router.router&#45;&gt;module.standard_cluster.google_compute_network.vpc -->
<g id="edge5" class="edge">
<title>module.standard_cluster.google_compute_router.router&#45;&gt;module.standard_cluster.google_compute_network.vpc</title>
<path fill="none" stroke="black" d="M544.88,-70.38C526.1,-73.51 506.34,-76.8 487.27,-79.97"/>
<polygon fill="black" stroke="black" points="486.91,-76.48 477.62,-81.57 488.06,-83.39 486.91,-76.48"/>
</g>
<!-- module.standard_cluster.google_compute_router_nat.router_nat -->
<g id="node5" class="node">
<title>module.standard_cluster.google_compute_router_nat.router_nat</title>
<polygon fill="none" stroke="black" points="1049.75,-72 799,-72 799,-36 1049.75,-36 1049.75,-72"/>
<text text-anchor="middle" x="924.38" y="-48.2" font-family="sans-serif" font-size="14.00">google_compute_router_nat.router_nat</text>
</g>
<!-- module.standard_cluster.google_compute_router_nat.router_nat&#45;&gt;module.standard_cluster.google_compute_address.address -->
<g id="edge6" class="edge">
<title>module.standard_cluster.google_compute_router_nat.router_nat&#45;&gt;module.standard_cluster.google_compute_address.address</title>
<path fill="none" stroke="black" d="M829.58,-35.51C807.81,-31.98 784.67,-28.81 763,-27 657.92,-18.22 631.02,-20.93 525.75,-27 517.82,-27.46 509.66,-28.05 501.45,-28.75"/>
<polygon fill="black" stroke="black" points="501.38,-25.24 491.74,-29.61 502.01,-32.21 501.38,-25.24"/>
</g>
<!-- module.standard_cluster.google_compute_router_nat.router_nat&#45;&gt;module.standard_cluster.google_compute_router.router -->
<g id="edge7" class="edge">
<title>module.standard_cluster.google_compute_router_nat.router_nat&#45;&gt;module.standard_cluster.google_compute_router.router</title>
<path fill="none" stroke="black" d="M798.61,-54C784.14,-54 769.47,-54 755.22,-54"/>
<polygon fill="black" stroke="black" points="755.42,-50.5 745.42,-54 755.42,-57.5 755.42,-50.5"/>
</g>
<!-- module.standard_cluster.google_compute_subnetwork.subnet -->
<g id="node6" class="node">
<title>module.standard_cluster.google_compute_subnetwork.subnet</title>
<polygon fill="none" stroke="black" points="763,-126 525.75,-126 525.75,-90 763,-90 763,-126"/>
<text text-anchor="middle" x="644.38" y="-102.2" font-family="sans-serif" font-size="14.00">google_compute_subnetwork.subnet</text>
</g>
<!-- module.standard_cluster.google_compute_router_nat.router_nat&#45;&gt;module.standard_cluster.google_compute_subnetwork.subnet -->
<g id="edge8" class="edge">
<title>module.standard_cluster.google_compute_router_nat.router_nat&#45;&gt;module.standard_cluster.google_compute_subnetwork.subnet</title>
<path fill="none" stroke="black" d="M828.48,-72.43C803.68,-77.25 776.79,-82.47 751.45,-87.4"/>
<polygon fill="black" stroke="black" points="750.95,-83.93 741.8,-89.27 752.28,-90.8 750.95,-83.93"/>
</g>
<!-- module.standard_cluster.google_compute_subnetwork.subnet&#45;&gt;module.standard_cluster.google_compute_network.vpc -->
<g id="edge9" class="edge">
<title>module.standard_cluster.google_compute_subnetwork.subnet&#45;&gt;module.standard_cluster.google_compute_network.vpc</title>
<path fill="none" stroke="black" d="M525.44,-103.54C512.78,-103.06 499.95,-102.58 487.41,-102.1"/>
<polygon fill="black" stroke="black" points="487.62,-98.61 477.5,-101.73 487.36,-105.6 487.62,-98.61"/>
</g>
<!-- module.standard_cluster.google_container_cluster.cluster -->
<g id="node7" class="node">
<title>module.standard_cluster.google_container_cluster.cluster</title>
<polygon fill="none" stroke="black" points="1029.5,-126 819.25,-126 819.25,-90 1029.5,-90 1029.5,-126"/>
<text text-anchor="middle" x="924.38" y="-102.2" font-family="sans-serif" font-size="14.00">google_container_cluster.cluster</text>
</g>
<!-- module.standard_cluster.google_container_cluster.cluster&#45;&gt;module.standard_cluster.google_compute_subnetwork.subnet -->
<g id="edge10" class="edge">
<title>module.standard_cluster.google_container_cluster.cluster&#45;&gt;module.standard_cluster.google_compute_subnetwork.subnet</title>
<path fill="none" stroke="black" d="M819.07,-108C804.58,-108 789.56,-108 774.68,-108"/>
<polygon fill="black" stroke="black" points="774.86,-104.5 764.86,-108 774.86,-111.5 774.86,-104.5"/>
</g>
<!-- module.standard_cluster.google_container_node_pool.general -->
<g id="node8" class="node">
<title>module.standard_cluster.google_container_node_pool.general</title>
<polygon fill="none" stroke="black" points="1324.5,-126 1085.75,-126 1085.75,-90 1324.5,-90 1324.5,-126"/>
<text text-anchor="middle" x="1205.12" y="-102.2" font-family="sans-serif" font-size="14.00">google_container_node_pool.general</text>
</g>
<!-- module.standard_cluster.google_container_node_pool.general&#45;&gt;module.standard_cluster.google_container_cluster.cluster -->
<g id="edge11" class="edge">
<title>module.standard_cluster.google_container_node_pool.general&#45;&gt;module.standard_cluster.google_container_cluster.cluster</title>
<path fill="none" stroke="black" d="M1085.51,-108C1070.75,-108 1055.67,-108 1040.95,-108"/>
<polygon fill="black" stroke="black" points="1041.3,-104.5 1031.3,-108 1041.3,-111.5 1041.3,-104.5"/>
</g>
<!-- module.standard_cluster.google_service_account.kubernetes -->
<g id="node12" class="node">
<title>module.standard_cluster.google_service_account.kubernetes</title>
<polygon fill="none" stroke="black" points="1040.38,-180 808.38,-180 808.38,-144 1040.38,-144 1040.38,-180"/>
<text text-anchor="middle" x="924.38" y="-156.2" font-family="sans-serif" font-size="14.00">google_service_account.kubernetes</text>
</g>
<!-- module.standard_cluster.google_container_node_pool.general&#45;&gt;module.standard_cluster.google_service_account.kubernetes -->
<g id="edge12" class="edge">
<title>module.standard_cluster.google_container_node_pool.general&#45;&gt;module.standard_cluster.google_service_account.kubernetes</title>
<path fill="none" stroke="black" d="M1108.97,-126.43C1084.11,-131.25 1057.15,-136.47 1031.74,-141.4"/>
<polygon fill="black" stroke="black" points="1031.21,-137.93 1022.06,-143.27 1032.54,-144.81 1031.21,-137.93"/>
</g>
<!-- module.standard_cluster.google_container_node_pool.spot -->
<g id="node9" class="node">
<title>module.standard_cluster.google_container_node_pool.spot</title>
<polygon fill="none" stroke="black" points="1314.75,-180 1095.5,-180 1095.5,-144 1314.75,-144 1314.75,-180"/>
<text text-anchor="middle" x="1205.12" y="-156.2" font-family="sans-serif" font-size="14.00">google_container_node_pool.spot</text>
</g>
<!-- module.standard_cluster.google_container_node_pool.spot&#45;&gt;module.standard_cluster.google_container_cluster.cluster -->
<g id="edge13" class="edge">
<title>module.standard_cluster.google_container_node_pool.spot&#45;&gt;module.standard_cluster.google_container_cluster.cluster</title>
<path fill="none" stroke="black" d="M1108.97,-143.57C1084.11,-138.75 1057.15,-133.53 1031.74,-128.6"/>
<polygon fill="black" stroke="black" points="1032.54,-125.19 1022.06,-126.73 1031.21,-132.07 1032.54,-125.19"/>
</g>
<!-- module.standard_cluster.google_container_node_pool.spot&#45;&gt;module.standard_cluster.google_service_account.kubernetes -->
<g id="edge14" class="edge">
<title>module.standard_cluster.google_container_node_pool.spot&#45;&gt;module.standard_cluster.google_service_account.kubernetes</title>
<path fill="none" stroke="black" d="M1095.16,-162C1081.06,-162 1066.52,-162 1052.17,-162"/>
<polygon fill="black" stroke="black" points="1052.22,-158.5 1042.22,-162 1052.22,-165.5 1052.22,-158.5"/>
</g>
</g>
</svg>
